<svg width="319" height="76" viewBox="0 0 319 76" fill="none" xmlns="http://www.w3.org/2000/svg">
<path d="M258.74 9.73401C258.737 11.7001 260.269 13.2967 262.164 13.3C264.058 13.3033 265.597 11.7121 265.6 9.74598C265.603 7.77985 264.071 6.18331 262.176 6.18C260.282 6.1767 258.743 7.76788 258.74 9.73401Z" fill="white"/>
<path d="M247.91 21.05L247.96 29.91C247.961 30.0939 248.014 30.2737 248.112 30.4294C248.21 30.585 248.349 30.7104 248.514 30.7914C248.679 30.8723 248.863 30.9058 249.046 30.8879C249.229 30.87 249.404 30.8014 249.55 30.69C250.83 29.71 251.86 29.99 252.64 31.53C252.661 31.5696 252.671 31.6138 252.669 31.6578C252.667 31.7018 252.654 31.744 252.63 31.78C250.44 35.04 243.97 36.91 241.32 33.15C239.71 30.88 240.34 24.22 240.26 21.02C240.253 20.68 240.08 20.51 239.74 20.51L237.14 20.52C236.553 20.5267 236.257 20.2333 236.25 19.64L236.24 16.94C236.24 16.4 236.507 16.0767 237.04 15.97C240.713 15.23 242.757 12.98 243.17 9.22C243.197 9.00667 243.317 8.9 243.53 8.9L247.53 8.88C247.79 8.88 247.92 9.01333 247.92 9.28V15.31C247.92 15.7367 248.133 15.95 248.56 15.95L251.98 15.94C252.126 15.94 252.266 15.9969 252.369 16.0982C252.472 16.1994 252.53 16.3368 252.53 16.48V19.99C252.53 20.3433 252.357 20.52 252.01 20.52L248.45 20.51C248.09 20.51 247.91 20.69 247.91 21.05Z" fill="white"/>
<path d="M91.97 29.23L91.99 15.22C91.99 14.8533 91.8433 14.5633 91.55 14.35C91.2033 14.0967 90.8133 13.9733 90.38 13.98C89.8733 13.9867 89.6267 13.7367 89.64 13.23L89.69 10.48C89.7033 9.92667 89.9833 9.65 90.53 9.65L102.44 9.63C102.813 9.63 103.003 9.81667 103.01 10.19L103.02 13.52C103.027 13.9067 102.837 14.0667 102.45 14C101.103 13.7867 100.437 14.5367 100.45 16.25C100.49 20.5633 100.527 24.8833 100.56 29.21C100.56 29.61 100.757 29.8467 101.15 29.92C101.643 30.0133 102.103 30.19 102.53 30.45C102.671 30.5358 102.788 30.6551 102.87 30.7967C102.953 30.9383 102.997 31.0977 103 31.26L103.01 34.2C103.011 34.2941 102.994 34.3875 102.959 34.4748C102.924 34.5621 102.872 34.6415 102.806 34.7085C102.74 34.7755 102.661 34.8287 102.574 34.865C102.487 34.9013 102.394 34.92 102.3 34.92L90.3 34.91C89.8933 34.91 89.6867 34.7033 89.68 34.29L89.65 30.63C89.6472 30.4699 89.7065 30.3151 89.815 30.1991C89.9235 30.0831 90.0726 30.0152 90.23 30.01L91.27 29.96C91.7367 29.94 91.97 29.6967 91.97 29.23Z" fill="white"/>
<path d="M108.04 30.01V20.44C108.041 20.2791 107.981 20.1235 107.872 20.0034C107.763 19.8834 107.612 19.8073 107.45 19.79L106.49 19.71C106.374 19.7001 106.266 19.6465 106.186 19.5597C106.107 19.4728 106.062 19.3589 106.06 19.24L106 16.47C105.999 16.3996 106.011 16.3296 106.037 16.2641C106.063 16.1986 106.102 16.139 106.152 16.0888C106.201 16.0385 106.26 15.9985 106.325 15.9713C106.39 15.944 106.46 15.93 106.53 15.93L114.52 15.95C114.953 15.95 115.307 16.1167 115.58 16.45L115.79 16.7C115.91 16.8467 116.06 16.88 116.24 16.8C118.93 15.57 125.08 14.45 127.29 17.09C129.01 19.14 128.25 27.34 128.28 30.24C128.287 30.7067 128.523 30.9533 128.99 30.98L129.72 31.02C130.16 31.04 130.377 31.2733 130.37 31.72L130.32 34.32C130.313 34.74 130.1 34.9467 129.68 34.94L120.08 34.9C119.931 34.9 119.787 34.8402 119.68 34.7336C119.574 34.627 119.513 34.4821 119.51 34.33L119.49 31.92C119.483 31.5867 119.63 31.34 119.93 31.18C120.537 30.8533 120.867 30.43 120.92 29.91C121.053 28.55 121.063 25.9433 120.95 22.09C120.934 21.5329 120.699 21.0044 120.295 20.6189C119.89 20.2334 119.35 20.0218 118.79 20.03L117.66 20.04C117.095 20.0479 116.556 20.2779 116.159 20.6802C115.762 21.0826 115.54 21.6249 115.54 22.19V30.07C115.54 30.4433 115.713 30.6967 116.06 30.83L116.59 31.04C116.748 31.101 116.882 31.2102 116.973 31.3522C117.065 31.4941 117.109 31.6613 117.1 31.83L116.99 34.34C116.985 34.4877 116.922 34.6276 116.816 34.7302C116.71 34.8328 116.568 34.8901 116.42 34.89L106.94 34.93C106.573 34.93 106.323 34.76 106.19 34.42C105.483 32.6 105.917 31.3967 107.49 30.81C107.857 30.67 108.04 30.4033 108.04 30.01Z" fill="white"/>
<path d="M143.29 30.91L143.77 31.08C143.881 31.1178 143.978 31.1903 144.046 31.2872C144.114 31.3841 144.151 31.5005 144.15 31.62L144.12 34.35C144.113 34.73 143.92 34.92 143.54 34.92L133.8 34.89C133.413 34.89 133.217 34.6933 133.21 34.3L133.17 31.62C133.163 31.22 133.36 31.0167 133.76 31.01L134.51 31C135.003 30.9933 135.25 30.74 135.25 30.24L135.28 20.43C135.28 20.2663 135.218 20.109 135.106 19.9915C134.994 19.8739 134.841 19.8052 134.68 19.8L133.74 19.76C133.413 19.74 133.25 19.5667 133.25 19.24L133.23 16.5C133.223 16.1533 133.397 15.9767 133.75 15.97L142.01 15.94C142.303 15.94 142.54 16.0533 142.72 16.28L142.91 16.54C143.083 16.76 143.303 16.8167 143.57 16.71C147.51 15 155.44 14.07 155.46 20.25C155.467 23.5567 155.487 26.8733 155.52 30.2C155.527 30.6333 155.743 30.8833 156.17 30.95L157.06 31.1C157.393 31.1533 157.56 31.35 157.56 31.69L157.51 34.46C157.503 34.7733 157.347 34.93 157.04 34.93L147.33 34.91C146.943 34.9033 146.747 34.71 146.74 34.33L146.73 31.81C146.723 31.45 146.88 31.1967 147.2 31.05L147.63 30.84C147.747 30.7837 147.845 30.6957 147.914 30.586C147.983 30.4764 148.02 30.3495 148.02 30.22L148.03 22.48C148.03 20.82 147.2 20.0067 145.54 20.04L145.2 20.05C143.573 20.09 142.763 20.9233 142.77 22.55L142.8 30.24C142.8 30.5733 142.963 30.7967 143.29 30.91Z" fill="white"/>
<path d="M182.593 26.0508C182.597 27.2077 182.373 28.3541 181.934 29.4246C181.495 30.495 180.849 31.4684 180.034 32.2894C179.219 33.1103 178.25 33.7626 177.183 34.2091C176.115 34.6556 174.97 34.8875 173.813 34.8915L168.993 34.9084C167.837 34.9124 166.69 34.6886 165.62 34.2495C164.549 33.8105 163.576 33.165 162.755 32.3498C161.934 31.5345 161.282 30.5656 160.835 29.4983C160.389 28.431 160.157 27.2861 160.153 26.1292L160.147 24.5692C160.143 23.4123 160.367 22.2659 160.806 21.1954C161.245 20.125 161.891 19.1516 162.706 18.3306C163.521 17.5097 164.49 16.8574 165.557 16.4109C166.625 15.9644 167.77 15.7325 168.926 15.7285L173.746 15.7116C174.903 15.7076 176.05 15.9314 177.12 16.3704C178.191 16.8095 179.164 17.455 179.985 18.2702C180.806 19.0855 181.458 20.0544 181.905 21.1217C182.351 22.189 182.583 23.3339 182.587 24.4908L182.593 26.0508ZM174 22.49C174 21.827 173.737 21.1911 173.268 20.7222C172.799 20.2534 172.163 19.99 171.5 19.99H171.24C170.577 19.99 169.941 20.2534 169.472 20.7222C169.003 21.1911 168.74 21.827 168.74 22.49V28.21C168.74 28.873 169.003 29.5089 169.472 29.9778C169.941 30.4466 170.577 30.71 171.24 30.71H171.5C172.163 30.71 172.799 30.4466 173.268 29.9778C173.737 29.5089 174 28.873 174 28.21V22.49Z" fill="white"/>
<path d="M224.38 23.01C224.469 23.0138 224.558 22.997 224.64 22.9608C224.722 22.9246 224.794 22.87 224.851 22.8012C224.908 22.7325 224.949 22.6515 224.969 22.5646C224.99 22.4776 224.99 22.3871 224.97 22.3L224.71 21.12C224.583 20.54 224.23 20.1867 223.65 20.06C222.317 19.7667 221.22 20.0933 220.36 21.04C220.262 21.147 220.142 21.2325 220.008 21.2911C219.874 21.3496 219.728 21.3799 219.58 21.38L213.69 21.34C213.558 21.3392 213.429 21.3071 213.312 21.2463C213.195 21.1854 213.094 21.0976 213.018 20.9901C212.942 20.8826 212.892 20.7585 212.873 20.6281C212.855 20.4976 212.867 20.3646 212.91 20.24C214.85 14.62 223.62 15.02 227.99 15.95C233.82 17.19 232.28 24.75 232.26 29.08C232.253 29.4667 232.43 29.7267 232.79 29.86C233.023 29.9467 233.267 29.9967 233.52 30.01C233.847 30.0167 234.01 30.1833 234.01 30.51V34.52C234.01 34.8667 233.837 35.04 233.49 35.04C231.22 35.03 227.42 35.8 226.03 33.34C225.843 33.0133 225.6 32.96 225.3 33.18C221.95 35.69 211.5 36.71 211.52 29.99C211.53 22.97 219.59 22.77 224.38 23.01ZM220.18 29.27C221.72 32.08 225.73 30.76 224.86 27.42C224.787 27.1467 224.613 26.9833 224.34 26.93C222.6 26.59 221.233 27.0867 220.24 28.42C220.033 28.6933 220.013 28.9767 220.18 29.27Z" fill="white"/>
<path d="M306.58 26.3C305.427 26.3 305.03 26.8467 305.39 27.94L305.88 29.41C306.039 29.8981 306.378 30.3072 306.83 30.5542C307.281 30.8012 307.81 30.8677 308.31 30.74C309.343 30.48 310.053 29.8867 310.44 28.96C310.767 28.18 311.35 27.79 312.19 27.79L317.99 27.78C318.903 27.7733 319.18 28.19 318.82 29.03C314.92 38.22 297.3 37.28 296.89 25.87C296.42 12.57 318.66 11.4 318.95 25.67C318.953 25.757 318.938 25.8437 318.906 25.9249C318.875 26.0061 318.827 26.0801 318.767 26.1426C318.706 26.2051 318.634 26.2548 318.553 26.2887C318.473 26.3226 318.387 26.34 318.3 26.34L306.58 26.3ZM306.2 22.73L310.28 22.77C310.343 22.77 310.405 22.7576 310.464 22.7335C310.522 22.7093 310.575 22.674 310.619 22.6294C310.664 22.5848 310.699 22.5319 310.723 22.4737C310.748 22.4154 310.76 22.353 310.76 22.29V22.14C310.763 21.8338 310.712 21.5302 310.609 21.2463C310.507 20.9625 310.355 20.704 310.163 20.4858C309.97 20.2676 309.741 20.0938 309.489 19.9744C309.236 19.855 308.965 19.7923 308.69 19.79H307.83C307.276 19.7852 306.743 20.0259 306.347 20.459C305.951 20.8922 305.726 21.4824 305.72 22.1V22.25C305.72 22.3773 305.771 22.4994 305.861 22.5894C305.951 22.6794 306.073 22.73 306.2 22.73Z" fill="white"/>
<path d="M198.37 26.21C198.388 26.2483 198.416 26.2808 198.451 26.3035C198.487 26.3263 198.528 26.3383 198.57 26.3383C198.612 26.3383 198.653 26.3263 198.689 26.3035C198.724 26.2808 198.752 26.2483 198.77 26.21L201.45 20.51C201.492 20.4151 201.501 20.3085 201.473 20.2082C201.446 20.108 201.385 20.0203 201.3 19.96C201.087 19.8067 200.85 19.7333 200.59 19.74C200.11 19.7533 199.867 19.52 199.86 19.04L199.8 16.58C199.787 16.1533 199.993 15.94 200.42 15.94L208.75 15.96C209.27 15.96 209.537 16.2233 209.55 16.75L209.61 19C209.612 19.1748 209.551 19.3443 209.439 19.4768C209.327 19.6093 209.171 19.6958 209 19.72L207.97 19.87C207.786 19.8944 207.611 19.9658 207.461 20.0777C207.311 20.1895 207.19 20.3382 207.11 20.51L200.67 34.48C200.543 34.7667 200.32 34.91 200 34.91L195.3 34.94C195.001 34.9431 194.708 34.8599 194.454 34.7004C194.201 34.5409 193.998 34.3117 193.87 34.04C191.983 30.0467 189.99 25.89 187.89 21.57C187.223 20.1833 186.393 19.5933 185.4 19.8C185.323 19.8147 185.244 19.8123 185.169 19.793C185.093 19.7737 185.023 19.7379 184.963 19.6883C184.902 19.6386 184.854 19.5762 184.821 19.5057C184.787 19.4351 184.77 19.358 184.77 19.28L184.74 16.48C184.74 16.3394 184.796 16.2046 184.895 16.1052C184.995 16.0058 185.129 15.95 185.27 15.95L196.97 15.96C197.483 15.96 197.74 16.2167 197.74 16.73V18.96C197.74 19.4333 197.507 19.6967 197.04 19.75L196.02 19.86C195.939 19.8693 195.861 19.898 195.794 19.9435C195.726 19.989 195.67 20.0501 195.631 20.1216C195.592 20.1931 195.571 20.2729 195.569 20.3544C195.567 20.4359 195.584 20.5167 195.62 20.59L198.37 26.21Z" fill="white"/>
<path d="M258.43 30.37L258.49 20.78C258.49 20.3867 258.31 20.11 257.95 19.95C257.59 19.79 257.213 19.73 256.82 19.77C256.46 19.8033 256.28 19.6367 256.28 19.27L256.26 16.47C256.26 16.1167 256.433 15.94 256.78 15.94H267.25C267.617 15.94 267.8 16.1267 267.8 16.5L267.78 19.24C267.773 19.5733 267.6 19.7467 267.26 19.76L266.59 19.79C266.432 19.7952 266.282 19.8628 266.171 19.9785C266.061 20.0942 266 20.249 266 20.41V30.32C266.007 30.7067 266.197 30.9133 266.57 30.94L267.28 30.99C267.446 31.0028 267.601 31.08 267.711 31.2051C267.821 31.3303 267.878 31.4935 267.87 31.66L267.74 34.32C267.732 34.4642 267.67 34.6002 267.566 34.7004C267.462 34.8006 267.324 34.8577 267.18 34.86L256.98 34.92C256.52 34.9267 256.287 34.6967 256.28 34.23L256.27 31.68C256.27 31.3133 256.453 31.11 256.82 31.07L257.89 30.96C258.038 30.9474 258.175 30.8798 258.275 30.7705C258.375 30.6611 258.431 30.5182 258.43 30.37Z" fill="white"/>
<path d="M281.57 19.83C281.467 19.8293 281.366 19.855 281.276 19.9046C281.186 19.9543 281.11 20.0262 281.056 20.1136C281.002 20.2009 280.971 20.3007 280.966 20.4034C280.962 20.5061 280.984 20.6082 281.03 20.7L283.32 25.25C283.84 26.2967 284.327 26.28 284.78 25.2L286.77 20.43C286.937 20.0367 286.807 19.85 286.38 19.87L285.67 19.92C285.27 19.94 285.067 19.7533 285.06 19.36L285.01 16.73C284.997 16.2167 285.25 15.96 285.77 15.96L294.23 15.95C294.75 15.95 295.007 16.21 295 16.73L294.99 19.15C294.99 19.5767 294.777 19.7867 294.35 19.78H293.43C293.017 19.78 292.723 19.97 292.55 20.35L286.11 34.4C285.957 34.7333 285.7 34.9 285.34 34.9L280.23 34.91C279.863 34.91 279.603 34.7467 279.45 34.42L272.91 20.77C272.75 20.4233 272.497 20.1667 272.15 20C271.69 19.7733 271.207 19.6967 270.7 19.77C270.273 19.8367 270.06 19.6567 270.06 19.23L270.03 16.71C270.03 16.2033 270.283 15.95 270.79 15.95H282.49C282.85 15.95 283.03 16.13 283.03 16.49L283.01 19.54C283.01 19.74 282.91 19.84 282.71 19.84L281.57 19.83Z" fill="white"/>
<path d="M193.01 48.5C193.01 48.6087 193.038 48.7155 193.091 48.8108C193.143 48.9062 193.219 48.9871 193.311 49.0465C193.403 49.1058 193.508 49.1418 193.618 49.1511C193.728 49.1605 193.838 49.1429 193.94 49.1C197.9 47.39 205.32 46.37 205.45 52.76C205.517 56.06 205.553 59.3733 205.56 62.7C205.56 63.12 205.77 63.3533 206.19 63.4L207.01 63.5C207.47 63.5533 207.703 63.8067 207.71 64.26L207.76 66.25C207.773 66.77 207.52 67.03 207 67.03L197.52 67.02C197.213 67.0133 197.01 66.8633 196.91 66.57C196.463 65.1567 196.72 63.9833 197.68 63.05C197.907 62.8233 198.02 62.55 198.02 62.23L198.03 54.5C198.037 53.14 197.36 52.48 196 52.52L195.08 52.54C193.7 52.58 193.01 53.29 193.01 54.67V62.25C193.01 62.6367 193.167 62.94 193.48 63.16C194.6 63.9533 194.897 65.0933 194.37 66.58C194.257 66.88 194.04 67.03 193.72 67.03H184.26C183.747 67.03 183.487 66.7733 183.48 66.26V64.25C183.473 63.7833 183.703 63.5433 184.17 63.53C184.563 63.5167 184.917 63.3933 185.23 63.16C185.336 63.0787 185.421 62.9743 185.48 62.8546C185.539 62.735 185.57 62.6034 185.57 62.47V43.27C185.57 43.1137 185.527 42.9607 185.446 42.8282C185.365 42.6957 185.248 42.589 185.11 42.52C184.783 42.3533 184.44 42.28 184.08 42.3C183.68 42.32 183.48 42.13 183.48 41.73V39.51C183.48 39.0033 183.733 38.75 184.24 38.75H192.51C192.843 38.75 193.01 38.9167 193.01 39.25V48.5Z" fill="white"/>
<path d="M174.78 53.48L174.82 61.75C174.827 63.3233 175.51 63.7167 176.87 62.93L177.45 62.59C177.75 62.4167 178.047 62.4233 178.34 62.61C178.787 62.8967 179.157 63.26 179.45 63.7C179.534 63.827 179.576 63.9773 179.569 64.1286C179.562 64.2799 179.506 64.4241 179.41 64.54C175.42 69.37 167.27 68.94 167.23 61.5C167.21 58.8467 167.237 56.1867 167.31 53.52C167.323 53.14 167.14 52.95 166.76 52.95L164 52.91C163.48 52.9033 163.22 52.64 163.22 52.12L163.25 49.23C163.257 48.65 163.547 48.3133 164.12 48.22C167.86 47.6133 169.867 45.38 170.14 41.52C170.145 41.436 170.182 41.3571 170.243 41.2995C170.305 41.2419 170.386 41.2098 170.47 41.21L174.46 41.14C174.673 41.14 174.78 41.2467 174.78 41.46L174.79 47.47C174.79 47.5615 174.808 47.652 174.843 47.7364C174.879 47.8208 174.93 47.8973 174.996 47.9615C175.061 48.0257 175.138 48.0763 175.223 48.1104C175.308 48.1445 175.399 48.1613 175.49 48.16L178.68 48.12C179.227 48.12 179.5 48.39 179.5 48.93L179.52 52.24C179.52 52.74 179.267 52.99 178.76 52.99L175.28 52.97C174.94 52.97 174.773 53.14 174.78 53.48Z" fill="white"/>
<path d="M108.85 54.33C109.39 54.5433 109.95 54.7033 110.53 54.81C118.37 56.24 116.7 66.23 108.98 66.85C105.733 67.11 99.5233 67.1633 90.35 67.01C89.8967 67.0033 89.67 66.7733 89.67 66.32V63.31C89.67 62.9633 89.8433 62.7833 90.19 62.77L91.42 62.71C91.5792 62.7023 91.7293 62.6336 91.8392 62.5181C91.949 62.4027 92.0102 62.2494 92.01 62.09L92.09 47.27C92.09 46.89 91.9 46.7067 91.52 46.72L90.5 46.75C89.9867 46.7633 89.7267 46.5133 89.72 46L89.65 42.63C89.6367 42.1967 89.8467 41.98 90.28 41.98C94.4667 41.98 98.7867 41.94 103.24 41.86C106.96 41.8 112.94 42.4 114.34 46.01C115.94 50.11 113.07 53.54 108.89 54.04C108.483 54.0867 108.47 54.1833 108.85 54.33ZM100.98 47.89L100.88 51.51C100.877 51.633 100.923 51.7521 101.007 51.8419C101.091 51.9316 101.207 51.9848 101.33 51.99L103.14 52.05C103.46 52.0593 103.779 52.0133 104.078 51.9148C104.377 51.8162 104.651 51.6671 104.883 51.4758C105.115 51.2845 105.302 51.0548 105.431 50.7998C105.561 50.5449 105.632 50.2697 105.64 49.99L105.65 49.69C105.666 49.1264 105.426 48.5784 104.982 48.166C104.538 47.7536 103.926 47.5105 103.28 47.49L101.47 47.43C101.407 47.4273 101.345 47.4372 101.286 47.459C101.228 47.4808 101.174 47.5141 101.128 47.5569C101.083 47.5998 101.046 47.6513 101.021 47.7085C100.995 47.7657 100.981 47.8274 100.98 47.89ZM102.26 56.91C101.393 56.7633 100.96 57.13 100.96 58.01L100.97 61.24C100.977 61.56 101.137 61.7467 101.45 61.8C103.45 62.18 106.61 61.44 105.84 58.69C105.738 58.3243 105.535 57.995 105.253 57.7402C104.972 57.4853 104.624 57.3154 104.25 57.25L102.26 56.91Z" fill="white"/>
<path d="M128.55 49.49C130.94 47.95 133.24 46.74 135.53 49.4C135.743 49.6524 135.864 49.9737 135.87 50.31L135.94 55.25C135.941 55.341 135.924 55.4313 135.89 55.5156C135.856 55.6 135.805 55.6766 135.741 55.7409C135.677 55.8053 135.6 55.856 135.516 55.8902C135.431 55.9244 135.341 55.9414 135.25 55.94H132.53C132.441 55.94 132.353 55.9195 132.274 55.8801C132.194 55.8408 132.124 55.7836 132.07 55.713C132.016 55.6425 131.979 55.5604 131.961 55.4732C131.944 55.386 131.947 55.2959 131.97 55.21C132.45 53.4233 131.787 52.5333 129.98 52.54C128.647 52.54 127.98 53.2067 127.98 54.54L127.96 62.59C127.96 63.0767 128.203 63.35 128.69 63.41L129.5 63.51C129.947 63.5633 130.173 63.81 130.18 64.25L130.22 66.28C130.233 66.7933 129.983 67.05 129.47 67.05L119.03 67.02C118.543 67.02 118.297 66.7733 118.29 66.28L118.28 64.21C118.28 63.7167 118.53 63.4833 119.03 63.51C119.37 63.5367 119.687 63.47 119.98 63.31C120.129 63.2314 120.254 63.1147 120.342 62.9722C120.429 62.8297 120.477 62.6666 120.48 62.5C120.507 59.3067 120.5 56.1333 120.46 52.98C120.453 52.1733 119.977 51.8267 119.03 51.94C118.936 51.9514 118.84 51.9425 118.749 51.9139C118.658 51.8854 118.575 51.8378 118.504 51.7745C118.433 51.7111 118.376 51.6333 118.337 51.5463C118.299 51.4593 118.279 51.3651 118.28 51.27L118.29 48.78C118.29 48.3333 118.517 48.11 118.97 48.11L127.35 48.12C127.495 48.119 127.635 48.1714 127.744 48.2674C127.853 48.3633 127.923 48.496 127.94 48.64L128.02 49.25C128.067 49.61 128.243 49.69 128.55 49.49Z" fill="white"/>
<path d="M161.13 57.8201C161.128 59.1359 160.827 60.4384 160.245 61.6531C159.663 62.8677 158.811 63.9709 157.738 64.8994C156.664 65.828 155.391 66.5639 153.99 67.065C152.589 67.5661 151.088 67.8227 149.572 67.82C146.512 67.8147 143.579 66.7539 141.418 64.871C139.257 62.9881 138.045 60.4374 138.05 57.7799C138.052 56.4641 138.353 55.1616 138.935 53.9469C139.517 52.7323 140.369 51.6291 141.442 50.7006C142.516 49.772 143.789 49.0361 145.19 48.535C146.591 48.0339 148.092 47.7773 149.607 47.78C152.668 47.7853 155.601 48.8461 157.762 50.729C159.923 52.6119 161.135 55.1626 161.13 57.8201ZM152.225 54.8746C152.226 54.5673 152.166 54.2629 152.048 53.9788C151.931 53.6947 151.759 53.4364 151.543 53.2188C151.326 53.0011 151.068 52.8283 150.784 52.7102C150.501 52.5921 150.196 52.531 149.889 52.5305L149.269 52.5295C148.962 52.529 148.657 52.589 148.373 52.7061C148.089 52.8232 147.831 52.9951 147.613 53.212C147.396 53.4289 147.223 53.6865 147.105 53.9702C146.987 54.2539 146.926 54.5581 146.925 54.8654L146.915 60.6454C146.914 60.9527 146.974 61.2571 147.092 61.5412C147.209 61.8253 147.381 62.0836 147.597 62.3012C147.814 62.5189 148.072 62.6917 148.356 62.8098C148.639 62.9279 148.944 62.989 149.251 62.9895L149.871 62.9905C150.178 62.991 150.483 62.931 150.767 62.8139C151.051 62.6968 151.309 62.5249 151.527 62.308C151.744 62.0911 151.917 61.8335 152.035 61.5498C152.153 61.2661 152.214 60.9619 152.215 60.6546L152.225 54.8746Z" fill="white"/>
<path d="M219.06 59.47C218.59 63.49 223.49 64.6 224.26 60.6C224.347 60.1733 224.603 59.9633 225.03 59.97L232.21 60.04C232.266 60.0398 232.322 60.0525 232.373 60.0771C232.423 60.1017 232.468 60.1376 232.503 60.182C232.537 60.2263 232.561 60.2781 232.573 60.3332C232.585 60.3883 232.584 60.4453 232.57 60.5C230.79 67.82 221.52 68.93 215.69 66.38C210.8 64.24 209.25 58.18 211.35 53.72C215.68 44.51 232.59 46.28 232.35 57.83C232.337 58.57 231.96 58.94 231.22 58.94L219.68 58.92C219.313 58.92 219.107 59.1033 219.06 59.47ZM219.72 55.03L223.84 54.95C223.902 54.9487 223.963 54.9353 224.019 54.9104C224.076 54.8856 224.127 54.8499 224.169 54.8053C224.212 54.7607 224.246 54.7082 224.268 54.6506C224.29 54.5931 224.301 54.5317 224.3 54.47V54.31C224.294 54.0014 224.226 53.697 224.101 53.4144C223.977 53.1317 223.797 52.8763 223.574 52.6627C223.35 52.4491 223.086 52.2816 222.797 52.1696C222.508 52.0576 222.2 52.0033 221.89 52.01H221.55C221.24 52.0165 220.934 52.0838 220.651 52.2079C220.367 52.3321 220.11 52.5107 219.896 52.7336C219.681 52.9564 219.513 53.2192 219.4 53.5069C219.288 53.7945 219.233 54.1014 219.24 54.41V54.57C219.241 54.6317 219.255 54.6926 219.28 54.7491C219.304 54.8056 219.34 54.8567 219.385 54.8994C219.429 54.9422 219.482 54.9757 219.539 54.9981C219.597 55.0205 219.658 55.0313 219.72 55.03Z" fill="white"/>
<path d="M245.68 49.5C248.15 48.06 250.2 46.74 252.78 49.28C253.027 49.5267 253.153 49.8233 253.16 50.17L253.17 55.28C253.17 55.7533 252.933 55.9833 252.46 55.97L250.06 55.92C249.673 55.9067 249.513 55.71 249.58 55.33C250.18 51.99 245.38 51.09 245.29 54.94C245.237 57.48 245.233 60.0067 245.28 62.52C245.287 62.8867 245.463 63.1367 245.81 63.27C246.223 63.43 246.653 63.5033 247.1 63.49C247.48 63.4767 247.673 63.66 247.68 64.04L247.72 66.27C247.727 66.7767 247.477 67.03 246.97 67.03H236.28C235.947 67.03 235.78 66.8633 235.78 66.53L235.8 64.06C235.8 63.7867 235.933 63.6167 236.2 63.55L237.38 63.28C237.727 63.1933 237.9 62.9733 237.9 62.62L237.92 52.65C237.92 52.502 237.868 52.3588 237.773 52.2455C237.678 52.1321 237.546 52.0558 237.4 52.03L236.35 51.87C235.99 51.81 235.807 51.5933 235.8 51.22L235.77 48.92C235.763 48.3733 236.037 48.1 236.59 48.1L244.72 48.14C245.107 48.1467 245.29 48.34 245.27 48.72L245.24 49.23C245.22 49.59 245.367 49.68 245.68 49.5Z" fill="white"/>
<path d="M34.8501 2.21204C34.8694 3.31644 35.1939 4.20635 35.5749 4.1997C35.9559 4.19305 36.2492 3.29236 36.2299 2.18796C36.2106 1.08356 35.8861 0.193654 35.5051 0.200305C35.1241 0.206956 34.8308 1.10764 34.8501 2.21204Z" fill="white"/>
<path d="M24.766 0.925513L24.7313 0.945332C24.4195 1.12319 24.3109 1.52016 24.4887 1.83199L26.8273 5.93193C27.0052 6.24376 27.4021 6.35236 27.714 6.17449L27.7487 6.15468C28.0605 5.97681 28.1691 5.57984 27.9913 5.26802L25.6527 1.16808C25.4748 0.85625 25.0779 0.747651 24.766 0.925513Z" fill="white"/>
<path d="M46.4716 1.0113L46.2984 0.911302C46.0162 0.748378 45.6554 0.845065 45.4924 1.12726L43.0124 5.42274C42.8495 5.70494 42.9462 6.06577 43.2284 6.2287L43.4016 6.3287C43.6838 6.49162 44.0446 6.39494 44.2076 6.11274L46.6876 1.81726C46.8505 1.53506 46.7538 1.17423 46.4716 1.0113Z" fill="white"/>
<path d="M28.62 30.07C18.11 22.98 23.24 7.53 35.66 7.18C47.56 6.85 52.86 23.45 42.49 30.11C42.1633 30.3167 42 30.6133 42 31L42.01 32.38C42.01 32.8067 41.7967 33.0167 41.37 33.01L38.3 32.97C37.86 32.9633 37.6367 32.74 37.63 32.3L37.58 26.48C37.5733 26.0467 37.79 25.83 38.23 25.83C44.87 25.83 43.41 18.14 38.74 19.12C36.7267 19.54 35.79 21.0733 35.93 23.72C35.9433 23.9 35.8567 23.9867 35.67 23.98H35.39C35.1633 23.9733 35.06 23.8533 35.08 23.62C35.28 20.8867 34.31 19.36 32.17 19.04C27.31 18.3 26.67 26 33.03 25.82C33.1197 25.8173 33.209 25.8324 33.2926 25.8644C33.3762 25.8964 33.4525 25.9445 33.5168 26.0061C33.5812 26.0677 33.6323 26.1413 33.6672 26.2227C33.7021 26.3041 33.7201 26.3916 33.72 26.48L33.69 32.29C33.69 32.77 33.4467 33.01 32.96 33.01L29.7 33C29.22 33 29.02 32.76 29.1 32.28C29.18 31.7933 29.18 31.3067 29.1 30.82C29.0533 30.5 28.8933 30.25 28.62 30.07Z" fill="white"/>
<path d="M20.0309 11.5899C20.882 12.1748 21.7596 12.376 21.9911 12.0392C22.2226 11.7024 21.7203 10.9551 20.8691 10.3701C20.018 9.78518 19.1404 9.58401 18.9089 9.92082C18.6774 10.2576 19.1797 11.0049 20.0309 11.5899Z" fill="white"/>
<path d="M50.9438 11.62C51.8397 11.0426 52.3987 10.3148 52.1923 9.99451C51.9858 9.67419 51.0922 9.8826 50.1962 10.46C49.3002 11.0374 48.7413 11.7652 48.9477 12.0855C49.1541 12.4058 50.0478 12.1974 50.9438 11.62Z" fill="white"/>
<path d="M19.365 19.0333L14.5651 19.0668C14.2558 19.0689 14.0069 19.3214 14.009 19.6307L14.0111 19.9307C14.0133 20.2399 14.2658 20.4889 14.575 20.4867L19.3749 20.4532C19.6842 20.4511 19.9331 20.1986 19.931 19.8893L19.9289 19.5893C19.9267 19.2801 19.6743 19.0311 19.365 19.0333Z" fill="white"/>
<path d="M56.4146 19.1542L51.6558 19.0462C51.3466 19.0392 51.0903 19.2841 51.0832 19.5933L51.0783 19.8133C51.0712 20.1225 51.3162 20.3788 51.6254 20.3858L56.3842 20.4938C56.6934 20.5008 56.9497 20.2559 56.9567 19.9467L56.9617 19.7267C56.9687 19.4175 56.7238 19.1612 56.4146 19.1542Z" fill="white"/>
<path d="M30.7 24.05C30.6028 24.0513 30.5063 24.0335 30.4161 23.9975C30.3258 23.9615 30.2434 23.9081 30.1738 23.8404C30.1042 23.7726 30.0485 23.6917 30.0101 23.6024C29.9717 23.5132 29.9513 23.4172 29.95 23.32V23.11C29.9457 22.7485 29.9876 22.3901 30.0733 22.0552C30.1589 21.7203 30.2867 21.4155 30.4492 21.1582C30.6118 20.9009 30.8059 20.6962 31.0205 20.5559C31.2351 20.4155 31.466 20.3421 31.7 20.34H31.9C32.3717 20.3357 32.8272 20.6207 33.1666 21.1326C33.506 21.6445 33.7014 22.3413 33.71 23.07V23.28C33.7113 23.3772 33.6935 23.4737 33.6575 23.564C33.6216 23.6542 33.5681 23.7366 33.5004 23.8062C33.4326 23.8759 33.3517 23.9315 33.2624 23.9699C33.1732 24.0083 33.0772 24.0287 32.98 24.03L30.7 24.05Z" fill="white"/>
<path d="M37.85 23.95C37.7704 23.95 37.6941 23.9184 37.6379 23.8621C37.5816 23.8059 37.55 23.7296 37.55 23.65L37.57 22.74C37.581 22.1066 37.7705 21.5022 38.0968 21.0597C38.4231 20.6171 38.8594 20.3727 39.31 20.38H39.45C39.6734 20.3835 39.8936 20.449 40.098 20.5725C40.3024 20.6961 40.487 20.8754 40.6411 21.1002C40.7953 21.3249 40.9161 21.5907 40.9965 21.8824C41.077 22.1741 41.1155 22.4859 41.11 22.8L41.09 23.71C41.09 23.7896 41.0584 23.8659 41.0021 23.9221C40.9459 23.9784 40.8696 24.01 40.79 24.01L37.85 23.95Z" fill="white"/>
<path d="M35.7063 25.8103L35.3463 25.8097C35.1806 25.8094 35.0461 25.9435 35.0458 26.1092L35.0343 32.7092C35.034 32.8748 35.168 33.0094 35.3337 33.0097L35.6937 33.0103C35.8594 33.0106 35.994 32.8765 35.9943 32.7108L36.0058 26.1108C36.0061 25.9452 35.872 25.8106 35.7063 25.8103Z" fill="white"/>
<path d="M19.21 28.3L21.43 27.16C21.83 26.9533 22.0167 27.0733 21.99 27.52L21.96 28.06C21.94 28.3267 21.81 28.5233 21.57 28.65L19.51 29.71C19.4641 29.7342 19.4136 29.7482 19.3617 29.7511C19.3098 29.754 19.2576 29.7458 19.2086 29.7269C19.1595 29.7081 19.1147 29.679 19.0771 29.6417C19.0394 29.6043 19.0098 29.5594 18.99 29.51L18.87 29.21C18.8046 29.0416 18.8031 28.8553 18.8659 28.6872C18.9287 28.5191 19.0513 28.3812 19.21 28.3Z" fill="white"/>
<path d="M52.33 28.58C52.3569 28.5964 52.3804 28.618 52.399 28.6434C52.4176 28.6689 52.4309 28.6978 52.4384 28.7284C52.4458 28.7591 52.4471 28.7909 52.4423 28.822C52.4374 28.8532 52.4264 28.8831 52.41 28.91L52.14 29.35C52.0431 29.5072 51.8647 29.6059 51.6437 29.6246C51.4227 29.6434 51.177 29.5806 50.96 29.45L49.51 28.58C49.4008 28.5154 49.302 28.4355 49.2192 28.3451C49.1364 28.2546 49.0712 28.1554 49.0275 28.0531C48.9838 27.9508 48.9624 27.8475 48.9646 27.7491C48.9667 27.6508 48.9923 27.5593 49.04 27.48L49.31 27.04C49.3256 27.0122 49.3465 26.9879 49.3716 26.9683C49.3967 26.9487 49.4254 26.9343 49.4561 26.9259C49.4869 26.9175 49.5189 26.9153 49.5505 26.9195C49.5821 26.9236 49.6125 26.934 49.64 26.95L52.33 28.58Z" fill="white"/>
<path d="M32.77 37.2C32.39 36.9 31.3933 36.9333 29.78 37.3C29.6956 37.3176 29.6084 37.3164 29.5245 37.2967C29.4406 37.2769 29.362 37.239 29.2943 37.1856C29.2267 37.1323 29.1715 37.0647 29.1327 36.9877C29.094 36.9107 29.0726 36.8262 29.07 36.74L29.02 35.49C29 34.9833 29.2467 34.73 29.76 34.73L41.25 34.74C41.7567 34.74 42.01 34.9933 42.01 35.5L42 36.51C41.9933 37.0033 41.74 37.2467 41.24 37.24L38.37 37.21C37.75 37.2033 37.4867 37.5067 37.58 38.12L37.63 38.44C37.6541 38.6001 37.7363 38.7461 37.8613 38.8509C37.9863 38.9556 38.1457 39.0122 38.31 39.01L41.23 38.96C41.5967 38.9533 41.6967 39.1133 41.53 39.44C40 42.41 31.12 42.16 29.68 39.54C29.48 39.1733 29.59 38.99 30.01 38.99L32.25 38.96C34.03 38.9333 34.2033 38.3467 32.77 37.2Z" fill="white"/>
<path d="M38.44 42.98C38.4877 42.98 38.5335 42.999 38.5673 43.0327C38.601 43.0665 38.62 43.1123 38.62 43.16V43.22C38.6296 43.7658 38.3358 44.2946 37.8033 44.6903C37.2708 45.0859 36.5431 45.316 35.78 45.33H35.48C35.1014 45.337 34.7255 45.2906 34.3737 45.1933C34.022 45.0961 33.7013 44.9499 33.4301 44.7632C33.1589 44.5765 32.9424 44.353 32.7931 44.1053C32.6438 43.8577 32.5646 43.5908 32.56 43.32V43.26C32.56 43.2123 32.579 43.1665 32.6127 43.1327C32.6465 43.099 32.6923 43.08 32.74 43.08L38.44 42.98Z" fill="white"/>
<path d="M33.69 55.94L32.46 56.01C32.4072 56.0114 32.355 55.9979 32.3095 55.9709C32.2641 55.9439 32.2272 55.9046 32.2031 55.8575C32.179 55.8105 32.1688 55.7575 32.1736 55.7049C32.1783 55.6522 32.1979 55.602 32.23 55.56L35.36 51.58C35.387 51.5473 35.421 51.5211 35.4595 51.5035C35.498 51.4859 35.5401 51.4772 35.5824 51.4782C35.6248 51.4791 35.6664 51.4897 35.7041 51.5091C35.7418 51.5284 35.7746 51.5561 35.8 51.59L38.81 55.56C38.8436 55.6033 38.8637 55.6556 38.8679 55.7102C38.872 55.7649 38.86 55.8195 38.8334 55.8675C38.8068 55.9154 38.7667 55.9544 38.7181 55.9798C38.6695 56.0051 38.6145 56.0156 38.56 56.01L37.41 55.9C37.3708 55.8958 37.3311 55.8999 37.2936 55.9121C37.2561 55.9242 37.2216 55.9442 37.1923 55.9706C37.1631 55.997 37.1397 56.0294 37.1238 56.0654C37.1079 56.1015 37.0998 56.1406 37.1 56.18L37.14 62.69C37.14 62.7643 37.1105 62.8355 37.058 62.888C37.0055 62.9405 36.9343 62.97 36.86 62.97L34.26 62.99C34.1858 62.99 34.1145 62.9605 34.062 62.908C34.0095 62.8555 33.98 62.7843 33.98 62.71L33.99 56.22C33.9901 56.1815 33.9823 56.1434 33.967 56.108C33.9517 56.0727 33.9292 56.0409 33.9011 56.0146C33.8729 55.9883 33.8396 55.9681 33.8033 55.9553C33.767 55.9425 33.7284 55.9373 33.69 55.94Z" fill="white"/>
<path d="M13.4 58.86C18.4479 58.86 22.54 54.7679 22.54 49.72C22.54 44.6721 18.4479 40.58 13.4 40.58C8.35213 40.58 4.26001 44.6721 4.26001 49.72C4.26001 54.7679 8.35213 58.86 13.4 58.86Z" fill="white"/>
<path d="M7.06001 64.93C7.0608 64.8521 7.04125 64.7752 7.0034 64.7071C6.96554 64.639 6.91073 64.5822 6.84459 64.5425C6.77844 64.5028 6.70333 64.4816 6.62697 64.4812C6.5506 64.4808 6.47573 64.5011 6.41001 64.54L5.89001 64.84C5.80482 64.8891 5.73409 64.9593 5.68493 65.0436C5.63577 65.1279 5.60993 65.2232 5.61001 65.32L5.59001 74.58C5.59001 74.8667 5.45001 75.01 5.17001 75.01L1.51001 74.99C1.38979 74.9874 1.27538 74.9388 1.19127 74.8547C1.10716 74.7706 1.06005 74.6576 1.06001 74.54C1.06001 70.85 0.540013 66.59 1.99001 63.31C2.81668 61.4567 3.97668 59.8067 5.47001 58.36C5.69668 58.14 5.96335 58.0633 6.27001 58.13C7.87001 58.4833 8.92001 59.1367 9.42001 60.09C11.44 63.95 12.8 68.8167 13.5 74.69C13.5267 74.91 13.4267 75.02 13.2 75.02L7.53001 75C7.40536 75 7.28581 74.9505 7.19767 74.8623C7.10953 74.7742 7.06001 74.6547 7.06001 74.53V64.93Z" fill="white"/>
<path d="M21.92 64.75L21.89 74.61C21.89 74.7117 21.8503 74.8094 21.7793 74.8823C21.7084 74.9552 21.6117 74.9974 21.51 75L15.77 75.02C15.53 75.02 15.4267 74.9 15.46 74.66C16.08 69.64 17.3167 65.0533 19.17 60.9C19.7567 59.5867 20.8634 58.6467 22.49 58.08C22.7967 57.9733 23.07 58.0267 23.31 58.24C28.69 63.08 27.94 67.87 27.95 74.48C27.95 74.8133 27.7834 74.9833 27.45 74.99L23.79 75C23.49 75 23.34 74.8467 23.34 74.54L23.32 65.19C23.32 64.8567 23.1533 64.6567 22.82 64.59L22.26 64.47C22.0333 64.4233 21.92 64.5167 21.92 64.75Z" fill="white"/>
<path d="M14.14 70.17C13.76 66.73 12.53 64.01 11.51 60.78C11.4167 60.5 11.51 60.4033 11.79 60.49C13.5367 61.0167 15.3033 61.0467 17.09 60.58C17.5633 60.4533 17.6967 60.61 17.49 61.05C16.1167 63.9967 15.2233 67.0767 14.81 70.29C14.7833 70.5167 14.6567 70.6067 14.43 70.56C14.3567 70.54 14.2867 70.49 14.22 70.41C14.1733 70.3567 14.1467 70.2767 14.14 70.17Z" fill="white"/>
<path d="M55.58 58.84C60.6168 58.84 64.7 54.7568 64.7 49.72C64.7 44.6832 60.6168 40.6 55.58 40.6C50.5432 40.6 46.46 44.6832 46.46 49.72C46.46 54.7568 50.5432 58.84 55.58 58.84Z" fill="white"/>
<path d="M47.79 65L47.78 74.61C47.78 74.87 47.65 75 47.39 75H43.53C43.2033 75 43.04 74.8367 43.04 74.51C43 67.97 42.54 63.04 47.81 58.26C48.0433 58.0467 48.3133 57.9867 48.62 58.08C50.2733 58.6133 51.4033 59.58 52.01 60.98C53.8167 65.16 55.0633 69.74 55.75 74.72C55.7767 74.9067 55.6933 75 55.5 75L49.45 74.97C49.3784 74.97 49.3097 74.9415 49.2591 74.8909C49.2084 74.8403 49.18 74.7716 49.18 74.7L49.17 64.91C49.17 64.6033 49.0167 64.46 48.71 64.48L48.25 64.51C47.9433 64.5233 47.79 64.6867 47.79 65Z" fill="white"/>
<path d="M63.9 65.09L63.95 74.76C63.95 74.9 63.88 74.97 63.74 74.97L58.01 75.01C57.8367 75.01 57.76 74.9267 57.78 74.76C58.22 69.44 59.6433 64.3967 62.05 59.63C62.2233 59.2833 62.5 59.07 62.88 58.99C63.4467 58.8633 63.9167 58.5833 64.29 58.15C64.5567 57.8433 64.85 57.8133 65.17 58.06C70.93 62.52 69.94 68.14 70.01 74.47C70.0113 74.5365 69.9994 74.6026 69.9748 74.6644C69.9503 74.7262 69.9137 74.7825 69.8671 74.83C69.8206 74.8775 69.765 74.9153 69.7037 74.941C69.6423 74.9668 69.5765 74.98 69.51 74.98L66 74.99C65.6733 74.99 65.5133 74.8267 65.52 74.5L65.59 65.63C65.5967 65.1433 65.3633 64.8333 64.89 64.7L64.54 64.6C64.1133 64.4733 63.9 64.6367 63.9 65.09Z" fill="white"/>
<path d="M53.52 60.75C53.5054 60.7185 53.4997 60.6833 53.5036 60.6487C53.5075 60.6141 53.5209 60.5815 53.5421 60.555C53.5633 60.5285 53.5914 60.5092 53.623 60.4995C53.6546 60.4897 53.6883 60.4899 53.72 60.5C55.5533 61.0333 57.3833 61.05 59.21 60.55C59.51 60.47 59.6133 60.5767 59.52 60.87L56.74 69.72C56.5333 70.3733 56.3767 70.36 56.27 69.68C55.7967 66.5733 54.88 63.5967 53.52 60.75Z" fill="white"/>
</svg>
